<svg xmlns="http://www.w3.org/2000/svg" viewBox="0 0 512 512" id="budget">
  <path fill-rule="evenodd" d="M373.699 376.187h115.866c5.723 0 10.434-4.711 10.434-10.435v-13.534c0-5.723-4.711-10.435-10.434-10.435H373.699c-5.723 0-10.435 4.711-10.435 10.435v13.534c0 5.724 4.712 10.435 10.435 10.435zm0-50.403h115.866c5.723 0 10.434-4.711 10.434-10.435v-13.534c0-5.724-4.711-10.435-10.434-10.435H373.699c-5.723 0-10.435 4.711-10.435 10.435v13.534c0 5.724 4.712 10.435 10.435 10.435zm0 100.806h115.866c5.723 0 10.434-4.711 10.434-10.435v-13.534c0-5.723-4.711-10.435-10.434-10.435H373.699c-5.723 0-10.435 4.711-10.435 10.435v13.534c0 5.723 4.712 10.435 10.435 10.435zm0-201.612h115.866c5.723 0 10.434-4.711 10.434-10.434V201.01c0-5.723-4.711-10.435-10.434-10.435H373.699c-5.723 0-10.435 4.712-10.435 10.435v13.534c0 5.723 4.712 10.434 10.435 10.434zm0 16c-5.723 0-10.435 4.711-10.435 10.434v13.534c0 5.723 4.711 10.435 10.435 10.435h115.866c5.723 0 10.434-4.711 10.434-10.435v-13.534c0-5.724-4.711-10.434-10.434-10.434H373.699zm-197.143-43.432c11.063 12.092 20.957 23.498 29.682 34.31-22.146 23.237-35.743 54.695-35.743 89.326 0 35.288 14.124 67.275 37.018 90.633-20.588 14.624-46.818 23.238-75.471 22.755-86.077 1.451-150.35-79.123-105.17-158.453 13.056-22.923 33.276-48.644 60.657-78.571 1.63.326 3.314.499 5.038.499h78.951c1.724 0 3.408-.173 5.038-.499zm-78.193-50.894-20.975-20.974c-7.072-7.072-7.072-18.646 0-25.719 6.015-6.016 15.538-7.032 22.696-2.438 2.659 1.707 5.713 1.979 8.63.771 2.917-1.209 4.884-3.559 5.558-6.646 1.782-8.164 9.092-14.325 17.771-14.327 8.522 0 15.955 6.007 17.772 14.327.674 3.087 2.641 5.437 5.558 6.646 2.919 1.209 5.971.936 8.629-.771 7.032-4.513 16.559-3.7 22.696 2.436v.001c7.072 7.073 7.072 18.646 0 25.719l-20.974 20.974H98.363v.001zm32.771 204.696c-5.318-.139-10.481-1.579-14.597-4.32-3.725-2.481-6.571-6.109-7.759-10.876a8.025 8.025 0 0 0-15.583 3.833c2.245 9.004 7.553 15.811 14.482 20.427 4.733 3.152 10.229 5.236 15.985 6.251v6.243a8.043 8.043 0 0 0 16.086 0v-6.09c6.995-1.066 14.121-3.619 19.716-7.865 6.725-5.102 11.197-12.408 10.964-22.213a31.267 31.267 0 0 0-.193-2.954c-1.304-10.744-7.117-17.737-14.824-22.39-6.77-4.087-14.888-6.123-22.331-7.345-5.368-.881-11.022-2.373-15.164-5.077-3.208-2.094-5.51-5.127-5.725-9.561-.233-4.798 1.861-8.669 5.162-11.353 2.586-2.102 5.884-3.562 9.459-4.283a25.869 25.869 0 0 1 4.414-.496 7.83 7.83 0 0 0 1.054-.006 25.57 25.57 0 0 1 5.913.775c5.979 1.516 11.422 5.456 14.289 12.283a8.04 8.04 0 1 0 14.829-6.221c-5.048-12.022-14.658-18.968-25.222-21.645a39.235 39.235 0 0 0-2.34-.518v-6.232a8.042 8.042 0 0 0-8.043-8.042 8.043 8.043 0 0 0-8.043 8.042v6.353c-6.094 1.228-11.816 3.801-16.425 7.548-7.084 5.76-11.575 14.121-11.069 24.548.508 10.476 5.736 17.503 13.014 22.254 6.344 4.142 14.136 6.285 21.322 7.464 5.771.948 11.932 2.445 16.614 5.271 3.744 2.261 6.557 5.564 7.157 10.515.08.66.123 1.139.13 1.446.093 3.936-1.79 6.935-4.617 9.081-3.54 2.686-8.511 4.27-13.483 4.873a37.394 37.394 0 0 1-3.538.281l-.383.007a8.048 8.048 0 0 0-1.251-.008zM92.568 182.045h78.951c5.317 0 9.697-4.379 9.697-9.696 0-5.318-4.379-9.697-9.697-9.697H92.568c-5.318 0-9.697 4.378-9.697 9.696s4.378 9.697 9.697 9.697zm207.427 25.636c-62.684 0-113.5 50.816-113.5 113.5s50.816 113.5 113.5 113.5c17.321 0 33.732-3.886 48.419-10.824a26.293 26.293 0 0 1-1.15-7.702v-12.934c-13.91 8.032-30.053 12.629-47.269 12.629-26.141 0-49.809-10.596-66.941-27.728-17.132-17.132-27.729-40.799-27.729-66.94s10.596-49.809 27.729-66.94c17.132-17.132 40.799-27.729 66.941-27.729 18.194 0 35.188 5.134 49.616 14.031a26.57 26.57 0 0 1 5.175-7.565c-3.871-3.97-6.509-9.146-7.284-14.898-14.453-6.672-30.544-10.4-47.507-10.4zm47.27 50.611v6.654c0 7.156 2.872 13.666 7.522 18.435-4.65 4.769-7.522 11.279-7.522 18.435v13.534c0 7.156 2.872 13.666 7.522 18.435-4.65 4.769-7.522 11.278-7.522 18.435v13.534c0 5.426 1.652 10.48 4.477 14.685-13.831 12.088-31.933 19.413-51.746 19.413-21.725 0-41.392-8.805-55.628-23.041-14.236-14.236-23.041-33.904-23.041-55.628 0-21.724 8.805-41.392 23.041-55.628 14.236-14.236 33.903-23.041 55.628-23.041 17.74-.002 34.109 5.871 47.269 15.778zm-14.224 33.402a8.165 8.165 0 1 1-15.059 6.317c-2.474-5.892-7.171-9.293-12.329-10.601a22.515 22.515 0 0 0-9.912-.24c-3.097.624-5.948 1.884-8.177 3.696-2.778 2.259-4.542 5.514-4.346 9.546.178 3.68 2.1 6.204 4.779 7.953 3.627 2.368 8.627 3.682 13.385 4.463 6.829 1.121 14.285 2.994 20.528 6.762 7.194 4.344 12.621 10.877 13.84 20.921.094.774.153 1.695.178 2.756.219 9.198-3.973 16.049-10.274 20.831-4.99 3.786-11.273 6.119-17.491 7.17v4.756a8.167 8.167 0 0 1-8.168 8.167 8.168 8.168 0 0 1-8.168-8.167v-4.915c-5.061-.983-9.886-2.868-14.07-5.654-6.448-4.295-11.389-10.632-13.479-19.016a8.148 8.148 0 1 1 15.825-3.893c1.017 4.081 3.457 7.189 6.651 9.316 3.954 2.633 9.03 3.889 14.182 3.766.861-.02 1.903-.104 3.117-.251 4.362-.529 8.706-1.906 11.774-4.233 2.345-1.779 3.906-4.257 3.829-7.495a14.603 14.603 0 0 0-.114-1.225c-.505-4.161-2.885-6.947-6.055-8.861-4.122-2.488-9.59-3.814-14.721-4.656-6.604-1.085-13.774-3.059-19.639-6.888-6.812-4.447-11.705-11.027-12.181-20.843-.473-9.748 3.724-17.564 10.344-22.947 4.103-3.336 9.15-5.668 14.537-6.861v-5.034a8.168 8.168 0 0 1 16.336 0v4.914c.484.102.966.213 1.446.335 9.815 2.491 18.743 8.943 23.432 20.111z" clip-rule="evenodd"></path>
</svg>
